<svg width="297" height="259" viewBox="0 0 297 259" fill="none" xmlns="http://www.w3.org/2000/svg">
<path d="M148.5 256.597L295 1.40326H2L148.5 256.597Z" stroke="black" stroke-width="1.89032"/>
<path d="M183.304 131.779L170.088 33.3543L91.9408 94.0775L183.304 131.779Z" stroke="black" stroke-width="1.89032"/>
<path d="M178.62 28.3589L183.605 142.063L83.2006 89.5528L178.62 28.3589Z" stroke="black" stroke-width="1.89032"/>
<path d="M189.941 22.1927L182.368 153.915L72.727 81.4586L189.941 22.1927Z" stroke="black" stroke-width="1.89032"/>
<path d="M201.365 15.919L180.863 166.93L61.0762 73.5682L201.365 15.919Z" stroke="black" stroke-width="1.89032"/>
<path d="M214.975 11.4174L177.361 181.667L49.5644 63.7809L214.975 11.4174Z" stroke="black" stroke-width="1.89032"/>
<path d="M228.908 7.18785L173.572 196.583L38.1495 53.6889L228.908 7.18785Z" stroke="black" stroke-width="1.89032"/>
<path d="M245.675 4.75821L168.992 211.973L28.8985 41.5774L245.675 4.75821Z" stroke="black" stroke-width="1.89032"/>
<path d="M261.97 2.95543L162.978 227.136L19.4297 28.8272L261.97 2.95543Z" stroke="black" stroke-width="1.89032"/>
<path d="M278.814 1.91493L156.382 242.032L10.8303 15.3396L278.814 1.91493Z" stroke="black" stroke-width="1.89032"/>
</svg>
